<svg width="24" height="24" viewBox="0 0 24 24" fill="none" xmlns="http://www.w3.org/2000/svg">
<path d="M21.9473 7.88007C21.9005 6.81739 21.7286 6.08681 21.4824 5.45375C21.2285 4.78177 20.8378 4.18015 20.3259 3.68002C19.8258 3.17211 19.2202 2.77744 18.556 2.52745C17.9193 2.28128 17.1925 2.10943 16.1298 2.06257C15.0592 2.01175 14.7193 2 12.0039 2C9.28855 2 8.94867 2.01175 7.88203 2.05861C6.81935 2.10546 6.08876 2.27746 5.45585 2.52348C4.78372 2.77744 4.1821 3.16814 3.68197 3.68002C3.17406 4.18015 2.77954 4.78574 2.5294 5.44993C2.28323 6.08681 2.11138 6.81342 2.06453 7.8761C2.0137 8.94672 2.00195 9.2866 2.00195 12.002C2.00195 14.7174 2.0137 15.0572 2.06056 16.1239C2.10741 17.1866 2.27941 17.9172 2.52559 18.5502C2.77954 19.2222 3.17406 19.8238 3.68197 20.3239C4.1821 20.8319 4.78769 21.2265 5.45189 21.4765C6.08876 21.7227 6.81538 21.8945 7.87821 21.9414C8.94471 21.9884 9.28474 22 12.0001 22C14.7155 22 15.0554 21.9884 16.122 21.9414C17.1847 21.8945 17.9153 21.7227 18.5482 21.4765C19.8923 20.9569 20.955 19.8942 21.4747 18.5502C21.7207 17.9133 21.8927 17.1866 21.9395 16.1239C21.9864 15.0572 21.9981 14.7174 21.9981 12.002C21.9981 9.2866 21.9942 8.94672 21.9473 7.88007ZM20.1463 16.0458C20.1032 17.0225 19.9392 17.55 19.8024 17.9016C19.4664 18.7729 18.7748 19.4644 17.9035 19.8005C17.5519 19.9372 17.0206 20.1013 16.0477 20.1442C14.9928 20.1912 14.6764 20.2028 12.0079 20.2028C9.33938 20.2028 9.01903 20.1912 7.96795 20.1442C6.99119 20.1013 6.46375 19.9372 6.11211 19.8005C5.67852 19.6402 5.28385 19.3863 4.96351 19.0542C4.63141 18.7299 4.37745 18.3391 4.21721 17.9056C4.08046 17.5539 3.9164 17.0225 3.87351 16.0497C3.8265 14.9948 3.8149 14.6783 3.8149 12.0098C3.8149 9.34124 3.8265 9.02089 3.87351 7.96996C3.9164 6.99321 4.08046 6.46576 4.21721 6.11413C4.37745 5.68039 4.63141 5.28587 4.96748 4.96537C5.29164 4.63327 5.68234 4.37932 6.11608 4.21922C6.46771 4.08247 6.99913 3.91841 7.97192 3.87537C9.02681 3.82852 9.34334 3.81677 12.0117 3.81677C14.6842 3.81677 15.0006 3.82852 16.0517 3.87537C17.0284 3.91841 17.5559 4.08247 17.9075 4.21922C18.3411 4.37932 18.7358 4.63327 19.0561 4.96537C19.3882 5.28968 19.6422 5.68039 19.8024 6.11413C19.9392 6.46576 20.1032 6.99702 20.1463 7.96996C20.1931 9.02486 20.2049 9.34124 20.2049 12.0098C20.2049 14.6783 20.1931 14.9909 20.1463 16.0458Z" fill="#2E3A59"/>
<path d="M12.0039 6.86425C9.16753 6.86425 6.8662 9.16542 6.8662 12.002C6.8662 14.8385 9.16753 17.1397 12.0039 17.1397C14.8405 17.1397 17.1417 14.8385 17.1417 12.002C17.1417 9.16542 14.8405 6.86425 12.0039 6.86425ZM12.0039 15.3347C10.1638 15.3347 8.67121 13.8423 8.67121 12.002C8.67121 10.1617 10.1638 8.66926 12.0039 8.66926C13.8442 8.66926 15.3367 10.1617 15.3367 12.002C15.3367 13.8423 13.8442 15.3347 12.0039 15.3347Z" fill="#2E3A59"/>
<path d="M18.5444 6.66111C18.5444 7.32347 18.0073 7.86054 17.3448 7.86054C16.6824 7.86054 16.1454 7.32347 16.1454 6.66111C16.1454 5.9986 16.6824 5.46169 17.3448 5.46169C18.0073 5.46169 18.5444 5.9986 18.5444 6.66111Z" fill="#2E3A59"/>
</svg>
