<?xml version="1.0" encoding="iso-8859-1"?>
<!-- Generator: Adobe Illustrator 19.0.0, SVG Export Plug-In . SVG Version: 6.00 Build 0)  -->
<svg version="1.1" id="Layer_1" xmlns="http://www.w3.org/2000/svg" xmlns:xlink="http://www.w3.org/1999/xlink" x="0px" y="0px"
	 viewBox="0 0 512 512" style="enable-background:new 0 0 512 512;" xml:space="preserve">
<g transform="translate(1 1)">
	<path style="fill:#fff" d="M476.867,425.667c14.507,0,25.6-11.093,25.6-25.6v-307.2V24.6c0-9.387-7.68-17.067-17.067-17.067
		H109.933c-9.387,0-17.067,7.68-17.067,17.067v34.133H408.6l0,0c23.893,0,42.667,18.773,42.667,42.667l0,0l0,0v298.667
		C451.267,414.573,462.36,425.667,476.867,425.667"/>
	<path style="fill:#fff;" d="M476.867,425.667c0.853-0.853,0-11.093,0-25.6v-307.2V24.6c0-9.387-6.827-17.067-16.213-17.067
		H109.08c-8.533,0-16.213,7.68-16.213,17.067v34.133h320l0,0c22.187,0,40.107,18.773,40.107,42.667l0,0v298.667
		C452.973,414.573,463.213,425.667,476.867,425.667"/>
	<path style="fill:#fff;" d="M365.933,101.4c0-23.893,18.773-42.667,42.667-42.667H101.4c-9.387,0-17.067,7.68-17.067,17.067
		v409.6c0,9.387,7.68,17.067,17.067,17.067h247.467c9.387,0,17.067-7.68,17.067-17.067V101.4z"/>
	<path style="fill:#FFFFFF;" d="M289.133,101.4c0-23.893,18.773-42.667,42.667-42.667H24.6c-9.387,0-17.067,7.68-17.067,17.067
		v409.6c0,9.387,7.68,17.067,17.067,17.067h247.467c9.387,0,17.067-7.68,17.067-17.067V101.4z"/>
	<path style="fill:#fff;" d="M340.333,101.4c0-23.893,18.773-42.667,42.667-42.667H50.2c-9.387,0-17.067,7.68-17.067,17.067
		v409.6c0,9.387,7.68,17.067,17.067,17.067h273.067c9.387,0,17.067-7.68,17.067-17.067V101.4z"/>
	<path style="fill:#fff;" d="M280.6,195.267c0,52.053-41.813,93.867-93.867,93.867s-93.867-41.813-93.867-93.867
		S134.68,101.4,186.733,101.4S280.6,143.213,280.6,195.267"/>
	<path style="fill:#fff;" d="M255,195.267c0,52.053-36.693,93.867-81.067,93.867s-81.067-41.813-81.067-93.867
		S129.56,101.4,173.933,101.4S255,143.213,255,195.267"/>
	<path d="M348.867,511H24.6C10.093,511-1,499.907-1,485.4V75.8c0-14.507,11.093-25.6,25.6-25.6h384c5.12,0,8.533,3.413,8.533,8.533
		s-3.413,8.533-8.533,8.533c-18.773,0-34.133,15.36-34.133,34.133v384C374.467,499.907,363.373,511,348.867,511z M24.6,67.267
		c-5.12,0-8.533,3.413-8.533,8.533v409.6c0,5.12,3.413,8.533,8.533,8.533h324.267c5.12,0,8.533-3.413,8.533-8.533v-384
		c0-12.8,5.12-24.747,12.8-34.133H24.6z"/>
	<path d="M476.867,434.2c-18.773,0-34.133-15.36-34.133-34.133V101.4c0-18.773-15.36-34.133-34.133-34.133H92.867
		c-5.12,0-8.533-3.413-8.533-8.533V24.6c0-14.507,11.093-25.6,25.6-25.6H485.4C499.907-1,511,10.093,511,24.6v375.467
		C511,418.84,495.64,434.2,476.867,434.2z M101.4,50.2h307.2c28.16,0,51.2,23.04,51.2,51.2v298.667
		c0,9.387,7.68,17.067,17.067,17.067s17.067-7.68,17.067-17.067V24.6c0-5.12-3.413-8.533-8.533-8.533H109.933
		c-5.12,0-8.533,3.413-8.533,8.533V50.2z"/>
	<path d="M408.6,485.4c-5.12,0-8.533-3.413-8.533-8.533V101.4c0-5.12,3.413-8.533,8.533-8.533c5.12,0,8.533,3.413,8.533,8.533
		v375.467C417.133,481.987,413.72,485.4,408.6,485.4z"/>
	<path d="M186.733,297.667c-56.32,0-102.4-46.08-102.4-102.4s46.08-102.4,102.4-102.4s102.4,46.08,102.4,102.4
		S243.053,297.667,186.733,297.667z M186.733,109.933c-46.933,0-85.333,38.4-85.333,85.333s38.4,85.333,85.333,85.333
		s85.333-38.4,85.333-85.333S233.667,109.933,186.733,109.933z"/>
	<path d="M186.733,297.667c-31.573,0-59.733-48.64-59.733-102.4s28.16-102.4,59.733-102.4s59.733,48.64,59.733,102.4
		S218.307,297.667,186.733,297.667z M186.733,109.933c-17.067,0-42.667,36.693-42.667,85.333s25.6,85.333,42.667,85.333
		s42.667-36.693,42.667-85.333S203.8,109.933,186.733,109.933z"/>
	<rect x="92.867" y="186.733" width="187.733" height="17.067"/>
	<path d="M203.8,340.333H50.2c-5.12,0-8.533-3.413-8.533-8.533s3.413-8.533,8.533-8.533h153.6c5.12,0,8.533,3.413,8.533,8.533
		S208.92,340.333,203.8,340.333z"/>
	<path d="M169.667,468.333H50.2c-5.12,0-8.533-3.413-8.533-8.533s3.413-8.533,8.533-8.533h119.467c5.12,0,8.533,3.413,8.533,8.533
		S174.787,468.333,169.667,468.333z"/>
	<path d="M323.267,468.333h-102.4c-5.12,0-8.533-3.413-8.533-8.533s3.413-8.533,8.533-8.533h102.4c5.12,0,8.533,3.413,8.533,8.533
		S328.387,468.333,323.267,468.333z"/>
	<path d="M152.6,383H50.2c-5.12,0-8.533-3.413-8.533-8.533c0-5.12,3.413-8.533,8.533-8.533h102.4c5.12,0,8.533,3.413,8.533,8.533
		C161.133,379.587,157.72,383,152.6,383z"/>
	<path d="M323.267,340.333H255c-5.12,0-8.533-3.413-8.533-8.533s3.413-8.533,8.533-8.533h68.267c5.12,0,8.533,3.413,8.533,8.533
		S328.387,340.333,323.267,340.333z"/>
	<path d="M323.267,383H203.8c-5.12,0-8.533-3.413-8.533-8.533c0-5.12,3.413-8.533,8.533-8.533h119.467
		c5.12,0,8.533,3.413,8.533,8.533C331.8,379.587,328.387,383,323.267,383z"/>
	<path d="M101.4,425.667H50.2c-5.12,0-8.533-3.413-8.533-8.533S45.08,408.6,50.2,408.6h51.2c5.12,0,8.533,3.413,8.533,8.533
		S106.52,425.667,101.4,425.667z"/>
	<path d="M220.867,425.667H152.6c-5.12,0-8.533-3.413-8.533-8.533s3.413-8.533,8.533-8.533h68.267c5.12,0,8.533,3.413,8.533,8.533
		S225.987,425.667,220.867,425.667z"/>
	<path d="M323.267,425.667h-51.2c-5.12,0-8.533-3.413-8.533-8.533s3.413-8.533,8.533-8.533h51.2c5.12,0,8.533,3.413,8.533,8.533
		S328.387,425.667,323.267,425.667z"/>
	<rect x="178.2" y="101.4" width="17.067" height="187.733"/>
</g>
<g>
</g>
<g>
</g>
<g>
</g>
<g>
</g>
<g>
</g>
<g>
</g>
<g>
</g>
<g>
</g>
<g>
</g>
<g>
</g>
<g>
</g>
<g>
</g>
<g>
</g>
<g>
</g>
<g>
</g>
</svg>
